<svg width="109" height="109" viewBox="0 0 109 109" fill="none" xmlns="http://www.w3.org/2000/svg">
<rect width="109" height="109" fill="#F5F5F5"/>
<g clip-path="url(#clip0_0_1)">
<path d="M108.346 54.174C108.346 64.674 105.346 74.974 99.546 83.774C98.346 85.674 97.046 87.374 95.546 89.074C92.146 93.074 88.246 96.474 83.946 99.374C82.746 100.174 81.546 100.874 80.346 101.574C73.846 105.174 66.646 107.374 59.346 108.074C57.646 108.274 55.946 108.274 54.246 108.274C49.546 108.274 44.846 107.674 40.246 106.474C37.646 105.774 35.146 104.874 32.646 103.874C31.346 103.374 30.146 102.774 28.946 102.074C26.046 100.574 23.346 98.774 20.746 96.774C19.546 95.874 18.446 94.874 17.346 93.874C-4.554 73.574 -5.854 39.274 14.446 17.374C34.746 -4.52599 69.046 -5.92599 90.946 14.474C102.046 24.674 108.346 39.074 108.346 54.174Z" fill="#43B84F"/>
<path d="M41.046 59.074C41.046 59.074 45.946 72.774 42.146 80.474C38.346 88.174 48.146 96.874 48.146 96.874C48.146 96.874 73.946 83.774 70.646 77.174C67.346 70.574 61.846 61.874 62.946 56.374L41.046 59.074Z" fill="#FFB8B8"/>
<path d="M50.646 64.274C60.311 64.274 68.146 56.439 68.146 46.774C68.146 37.109 60.311 29.274 50.646 29.274C40.981 29.274 33.146 37.109 33.146 46.774C33.146 56.439 40.981 64.274 50.646 64.274Z" fill="#FFB8B8"/>
<path d="M40.146 106.474C37.546 105.774 35.046 104.874 32.546 103.874L33.046 90.574L37.946 79.574C39.046 80.474 40.246 81.174 41.446 81.874C41.746 82.074 42.046 82.174 42.346 82.374C46.946 84.574 54.546 86.574 61.846 81.074C64.546 78.974 66.846 76.374 68.546 73.474L82.446 81.274L83.146 89.674L83.946 99.474C82.746 100.274 81.546 100.974 80.346 101.674C73.846 105.274 66.646 107.474 59.346 108.174C57.646 108.374 55.946 108.374 54.246 108.374C49.446 108.374 44.746 107.674 40.146 106.474Z" fill="#575A89"/>
<path d="M43.546 71.374L42.846 78.574L42.446 82.374L41.946 87.974L40.146 106.474C37.546 105.774 35.046 104.874 32.546 103.874C31.246 103.374 30.046 102.774 28.846 102.074C25.946 100.574 23.246 98.774 20.646 96.774L18.746 87.774L18.846 87.674L43.546 71.374Z" fill="#575A89"/>
<path d="M80.346 101.574C73.846 105.174 66.646 107.374 59.346 108.074C59.746 101.374 60.346 94.974 60.946 89.274C61.246 86.374 61.646 83.574 62.046 81.074C63.246 73.074 64.546 67.574 65.446 66.874L71.546 70.874L96.146 79.574L95.646 89.074C92.246 93.074 88.346 96.474 84.046 99.374C82.746 100.174 81.546 100.974 80.346 101.574Z" fill="#575A89"/>
<path d="M20.746 96.874C19.546 95.974 18.446 94.974 17.346 93.974L18.246 87.874L18.946 87.774L22.046 87.374L28.846 102.174C26.046 100.574 23.346 98.874 20.746 96.874Z" fill="#575A89"/>
<path d="M99.546 83.774C98.346 85.674 97.046 87.374 95.546 89.074C92.146 93.074 88.246 96.474 83.946 99.374C82.746 100.174 81.546 100.874 80.346 101.574L79.746 98.774L83.246 89.674L87.446 78.574L96.246 79.674C97.346 80.974 98.446 82.374 99.546 83.774Z" fill="#575A89"/>
<path d="M67.346 30.874C64.646 26.574 60.546 23.374 55.746 21.974L52.146 24.874L53.546 21.574C52.346 21.374 51.246 21.374 50.046 21.374L46.846 25.474L48.146 21.474C42.546 22.174 37.446 25.174 34.146 29.774C30.046 35.674 29.346 43.874 33.346 49.774C34.446 46.374 35.746 43.174 36.846 39.874C37.746 39.974 38.546 39.974 39.446 39.874L40.746 36.774L41.146 39.774C45.346 39.374 51.446 38.574 55.446 37.874L55.046 35.574L57.346 37.474C58.546 37.174 59.246 36.974 59.246 36.774C62.146 41.474 65.046 44.474 68.046 49.274C69.146 42.474 71.046 36.974 67.346 30.874Z" fill="#2F2E41"/>
<path d="M66.346 48.574C67.0087 48.574 67.546 47.4995 67.546 46.174C67.546 44.8485 67.0087 43.774 66.346 43.774C65.6833 43.774 65.146 44.8485 65.146 46.174C65.146 47.4995 65.6833 48.574 66.346 48.574Z" fill="#FFB8B8"/>
</g>
<defs>
<clipPath id="clip0_0_1">
<rect width="108.3" height="108.3" fill="white"/>
</clipPath>
</defs>
</svg>
